<?xml version="1.0" encoding="UTF-8"?> <svg xmlns="http://www.w3.org/2000/svg" viewBox="0 0 64 64" width="512" height="512"><g id="Mansion-3" data-name="Mansion"><path fill="#F4BA10" d="M62,59H61a1,1,0,0,0,0,2h1a1,1,0,0,0,0-2Z"></path><path fill="#F4BA10" d="M60,4a1,1,0,0,0-1-1H27a1,1,0,0,0-1,1V8a1,1,0,0,0,1,1h3V59H23V57.91a5.975,5.975,0,0,0,3.793-9.5,4.955,4.955,0,0,0-1.136-4.809A3.909,3.909,0,0,0,26,42a4,4,0,0,0-8,0,3.917,3.917,0,0,0,.343,1.606,4.951,4.951,0,0,0-1.136,4.807A5.976,5.976,0,0,0,21,57.91V59H11V53.91a5.975,5.975,0,0,0,3.793-9.5A4.955,4.955,0,0,0,13.657,39.6,3.909,3.909,0,0,0,14,38a4,4,0,0,0-8,0,3.917,3.917,0,0,0,.343,1.606,4.951,4.951,0,0,0-1.136,4.807A5.976,5.976,0,0,0,9,53.91v1.222l-1.445-.964a1,1,0,1,0-1.11,1.664L9,57.535V59H2a1,1,0,0,0,0,2H58a1,1,0,0,0,0-2H56V9h3a1,1,0,0,0,1-1ZM18,52a3.978,3.978,0,0,1,1.077-2.709,1,1,0,0,0,.182-1.084,2.959,2.959,0,0,1,.957-3.6,1,1,0,0,0,.2-1.4A1.975,1.975,0,0,1,20,42a2,2,0,0,1,4,0,1.975,1.975,0,0,1-.414,1.2,1,1,0,0,0,.2,1.4,2.963,2.963,0,0,1,.957,3.6,1,1,0,0,0,.181,1.084A3.969,3.969,0,0,1,23,55.858V53a1,1,0,0,0-2,0v2.858A4,4,0,0,1,18,52ZM6,48a3.978,3.978,0,0,1,1.077-2.709,1,1,0,0,0,.182-1.084,2.959,2.959,0,0,1,.957-3.6,1,1,0,0,0,.2-1.4A1.975,1.975,0,0,1,8,38a2,2,0,0,1,4,0,1.975,1.975,0,0,1-.414,1.2,1,1,0,0,0,.2,1.4,2.963,2.963,0,0,1,.957,3.6,1,1,0,0,0,.181,1.084A3.969,3.969,0,0,1,11,51.858V49a1,1,0,0,0-2,0v2.858A4,4,0,0,1,6,48ZM36,59V49h5V59Zm18,0H43V49a1,1,0,0,0,0-2H34a1,1,0,0,0,0,2V59H32V9H54ZM58,7H28V5H58Z"></path><path fill="#F4BA10" d="M10,47a1,1,0,0,0,1-1V45a1,1,0,0,0-2,0v1A1,1,0,0,0,10,47Z"></path><path fill="#F4BA10" d="M51,47H46a1,1,0,0,0-1,1v8a1,1,0,0,0,1,1h5a1,1,0,0,0,1-1V48A1,1,0,0,0,51,47Zm-4,2h3v1H47Zm3,6H47V52h3Z"></path><path fill="#F4BA10" d="M35,21H51a1,1,0,0,0,1-1V11a1,1,0,0,0-1-1H35a1,1,0,0,0-1,1v9A1,1,0,0,0,35,21Zm1-2V15h6v4Zm14,0H44V15h6ZM36,12H50v1H36Z"></path><path fill="#F4BA10" d="M35,33H51a1,1,0,0,0,1-1V23a1,1,0,0,0-1-1H35a1,1,0,0,0-1,1v9A1,1,0,0,0,35,33Zm1-2V27h6v4Zm14,0H44V27h6ZM36,24H50v1H36Z"></path><path fill="#F4BA10" d="M35,45H51a1,1,0,0,0,1-1V35a1,1,0,0,0-1-1H35a1,1,0,0,0-1,1v9A1,1,0,0,0,35,45Zm1-2V39h6v4Zm14,0H44V39h6ZM36,36H50v1H36Z"></path></g></svg> 