<?xml version="1.0" encoding="UTF-8"?> <svg xmlns="http://www.w3.org/2000/svg" viewBox="0 0 64 64" width="512" height="512"><g id="Mansion-3" data-name="Mansion"><path fill="#F4BA10" d="M17,31h7a.929.929,0,0,0,.5-.145,3.5,3.5,0,0,0-.619-6.834,3.99,3.99,0,0,0-7.344-.994A4,4,0,0,0,17,31Zm-.035-6,.148.016a.992.992,0,0,0,1.01-.669A1.992,1.992,0,0,1,22,24.955c0,.024,0,.049,0,.068a1,1,0,0,0,1.2,1.008A1.531,1.531,0,0,1,25,27.5a1.5,1.5,0,0,1-1.2,1.47,1.088,1.088,0,0,0-.112.03H17a2,2,0,0,1-.035-4Z"></path></g></svg> 